<svg data-v-423bf9ae="" xmlns="http://www.w3.org/2000/svg" viewBox="0 0 623.4942465669734 163" class="iconAbove"><!----><!----><!----><g data-v-423bf9ae="" id="494f5fbd-2397-440c-82b4-b2e8a439dafb" fill="black" transform="matrix(4.597701082226675,0,0,4.597701082226675,-4.137924564377215,86.26436686312113)"><path d="M4.91 13.75L3.71 13.75L3.71 5.11L0.90 5.11L0.90 3.95L7.73 3.95L7.73 5.11L4.91 5.11L4.91 13.75ZM12.46 13.92L12.46 13.92L12.46 13.92Q11.30 13.92 10.60 13.29L10.60 13.29L10.60 13.29Q9.90 12.67 9.90 11.51L9.90 11.51L9.90 11.51Q9.90 10.35 10.69 9.74L10.69 9.74L10.69 9.74Q11.48 9.14 12.64 9.14L12.64 9.14L12.64 9.14Q13.71 9.14 14.57 9.60L14.57 9.60L14.57 9.06L14.57 9.06Q14.57 7.46 13.06 7.46L13.06 7.46L13.06 7.46Q11.96 7.46 10.79 8.22L10.79 8.22L10.44 7.22L10.44 7.22Q11.73 6.43 13.17 6.43L13.17 6.43L13.17 6.43Q13.64 6.43 14.04 6.53L14.04 6.53L14.04 6.53Q14.45 6.64 14.85 6.90L14.85 6.90L14.85 6.90Q15.25 7.15 15.48 7.69L15.48 7.69L15.48 7.69Q15.71 8.22 15.71 8.97L15.71 8.97L15.71 13.75L14.57 13.75L14.57 13.09L14.57 13.09Q13.68 13.92 12.46 13.92ZM12.61 12.88L12.61 12.88L12.61 12.88Q13.73 12.88 14.57 11.90L14.57 11.90L14.57 10.67L14.57 10.67Q13.75 10.16 12.78 10.16L12.78 10.16L12.78 10.16Q12.03 10.16 11.52 10.51L11.52 10.51L11.52 10.51Q11.02 10.85 11.02 11.51L11.02 11.51L11.02 11.51Q11.02 12.12 11.44 12.50L11.44 12.50L11.44 12.50Q11.86 12.88 12.61 12.88ZM21.53 13.92L21.53 13.92L21.53 13.92Q20.75 13.92 20.04 13.57L20.04 13.57L20.04 13.57Q19.33 13.23 18.86 12.66L18.86 12.66L19.67 11.94L19.67 11.94Q20.52 12.88 21.62 12.88L21.62 12.88L21.62 12.88Q22.22 12.88 22.61 12.64L22.61 12.64L22.61 12.64Q23.00 12.39 23.00 11.94L23.00 11.94L23.00 11.94Q23.00 11.68 22.87 11.47L22.87 11.47L22.87 11.47Q22.74 11.26 22.42 11.07L22.42 11.07L22.42 11.07Q22.11 10.89 21.88 10.79L21.88 10.79L21.88 10.79Q21.66 10.68 21.18 10.50L21.18 10.50L21.18 10.50Q20.62 10.28 20.29 10.11L20.29 10.11L20.29 10.11Q19.96 9.94 19.61 9.67L19.61 9.67L19.61 9.67Q19.25 9.41 19.09 9.07L19.09 9.07L19.09 9.07Q18.93 8.74 18.93 8.29L18.93 8.29L18.93 8.29Q18.93 7.45 19.64 6.94L19.64 6.94L19.64 6.94Q20.34 6.43 21.43 6.43L21.43 6.43L21.43 6.43Q22.97 6.43 23.94 7.53L23.94 7.53L23.14 8.19L23.14 8.19Q22.36 7.46 21.41 7.46L21.41 7.46L21.41 7.46Q20.78 7.46 20.41 7.69L20.41 7.69L20.41 7.69Q20.03 7.91 20.03 8.29L20.03 8.29L20.03 8.29Q20.03 8.69 20.42 8.95L20.42 8.95L20.42 8.95Q20.80 9.20 21.60 9.51L21.60 9.51L21.60 9.51Q21.67 9.53 21.71 9.55L21.71 9.55L21.71 9.55Q22.20 9.74 22.42 9.84L22.42 9.84L22.42 9.84Q22.64 9.93 23.04 10.15L23.04 10.15L23.04 10.15Q23.44 10.37 23.62 10.58L23.62 10.58L23.62 10.58Q23.80 10.79 23.95 11.14L23.95 11.14L23.95 11.14Q24.11 11.48 24.11 11.90L24.11 11.90L24.11 11.90Q24.11 12.84 23.41 13.38L23.41 13.38L23.41 13.38Q22.72 13.92 21.53 13.92ZM30.83 13.92L30.83 13.92L30.83 13.92Q29.01 13.92 29.01 12.12L29.01 12.12L29.01 7.66L27.37 7.66L27.37 6.59L29.01 6.59L29.01 4.23L30.20 3.64L30.20 6.59L32.61 6.59L32.61 7.66L30.20 7.66L30.20 11.75L30.20 11.75Q30.20 12.28 30.41 12.55L30.41 12.55L30.41 12.55Q30.63 12.82 31.23 12.82L31.23 12.82L31.23 12.82Q31.89 12.82 32.55 12.43L32.55 12.43L32.41 13.59L32.41 13.59Q31.79 13.92 30.83 13.92ZM41.94 9.86L41.94 9.86L41.94 9.86Q41.94 10.32 41.90 10.64L41.90 10.64L36.90 10.64L36.90 10.64Q37.04 11.68 37.58 12.26L37.58 12.26L37.58 12.26Q38.12 12.84 38.99 12.84L38.99 12.84L38.99 12.84Q39.90 12.84 40.66 12.22L40.66 12.22L41.33 13.01L41.33 13.01Q40.32 13.92 38.95 13.92L38.95 13.92L38.95 13.92Q37.45 13.92 36.56 12.85L36.56 12.85L36.56 12.85Q35.67 11.79 35.67 10.16L35.67 10.16L35.67 10.16Q35.67 8.41 36.56 7.42L36.56 7.42L36.56 7.42Q37.45 6.43 38.95 6.43L38.95 6.43L38.95 6.43Q40.26 6.43 41.10 7.29L41.10 7.29L41.10 7.29Q41.94 8.16 41.94 9.86ZM36.88 9.60L36.88 9.60L40.75 9.60L40.75 9.60Q40.73 8.47 40.19 7.98L40.19 7.98L40.19 7.98Q39.66 7.49 38.95 7.49L38.95 7.49L38.95 7.49Q38.00 7.49 37.47 8.05L37.47 8.05L37.47 8.05Q36.95 8.61 36.88 9.60ZM48.75 4.86L48.75 4.86L48.75 4.86Q48.13 4.86 47.90 5.09L47.90 5.09L47.90 5.09Q47.67 5.32 47.67 5.75L47.67 5.75L47.67 6.59L49.74 6.59L49.74 7.66L47.67 7.66L47.67 12.68L49.57 12.68L49.57 13.75L44.97 13.75L44.97 12.68L46.48 12.68L46.48 7.66L44.97 7.66L44.97 6.59L46.48 6.59L46.48 5.54L46.48 5.54Q46.48 4.59 47.07 4.19L47.07 4.19L47.07 4.19Q47.66 3.78 48.57 3.78L48.57 3.78L48.57 3.78Q49.42 3.78 50.13 4.12L50.13 4.12L50.13 5.15L50.13 5.15Q49.50 4.86 48.75 4.86ZM55.85 13.92L55.85 13.92L55.85 13.92Q54.49 13.92 53.82 13.14L53.82 13.14L53.82 13.14Q53.16 12.36 53.16 10.63L53.16 10.63L53.16 6.59L54.36 6.59L54.36 10.78L54.36 10.78Q54.36 11.83 54.80 12.31L54.80 12.31L54.80 12.31Q55.24 12.80 55.99 12.80L55.99 12.80L55.99 12.80Q57.74 12.80 57.74 10.81L57.74 10.81L57.74 6.59L58.95 6.59L58.95 13.75L57.74 13.75L57.74 13.05L57.74 13.05Q57.06 13.92 55.85 13.92ZM65.27 3.64L65.27 12.68L67.28 12.68L67.28 13.75L62.08 13.75L62.08 12.68L64.08 12.68L64.08 4.70L62.36 4.70L61.82 3.64L65.27 3.64ZM82.28 13.92L82.28 13.92L82.28 13.92Q81.51 13.92 80.87 13.63L80.87 13.63L80.87 13.63Q80.23 13.34 79.82 12.86L79.82 12.86L79.82 12.86Q79.41 12.38 79.13 11.72L79.13 11.72L79.13 11.72Q78.85 11.06 78.72 10.35L78.72 10.35L78.72 10.35Q78.60 9.63 78.60 8.85L78.60 8.85L78.60 8.85Q78.60 7.50 78.96 6.39L78.96 6.39L78.96 6.39Q79.32 5.28 80.18 4.53L80.18 4.53L80.18 4.53Q81.03 3.78 82.28 3.78L82.28 3.78L82.28 3.78Q84.14 3.78 84.95 5.52L84.95 5.52L83.89 6.09L83.89 6.09Q83.58 5.52 83.22 5.21L83.22 5.21L83.22 5.21Q82.85 4.90 82.28 4.90L82.28 4.90L82.28 4.90Q81.63 4.90 81.14 5.26L81.14 5.26L81.14 5.26Q80.65 5.61 80.38 6.20L80.38 6.20L80.38 6.20Q80.11 6.79 79.97 7.46L79.97 7.46L79.97 7.46Q79.84 8.12 79.84 8.85L79.84 8.85L79.84 8.85Q79.84 9.90 80.09 10.76L80.09 10.76L80.09 10.76Q80.33 11.62 80.90 12.21L80.90 12.21L80.90 12.21Q81.47 12.80 82.28 12.80L82.28 12.80L82.28 12.80Q83.40 12.80 83.99 11.55L83.99 11.55L85.06 11.96L85.06 11.96Q84.70 12.82 84.01 13.37L84.01 13.37L84.01 13.37Q83.31 13.92 82.28 13.92ZM92.99 12.91L92.99 12.91L92.99 12.91Q92.08 13.92 90.55 13.92L90.55 13.92L90.55 13.92Q89.03 13.92 88.12 12.92L88.12 12.92L88.12 12.92Q87.21 11.93 87.21 10.18L87.21 10.18L87.21 10.18Q87.21 8.44 88.12 7.43L88.12 7.43L88.12 7.43Q89.03 6.43 90.55 6.43L90.55 6.43L90.55 6.43Q92.09 6.43 92.99 7.42L92.99 7.42L92.99 7.42Q93.90 8.41 93.90 10.16L93.90 10.16L93.90 10.16Q93.90 11.90 92.99 12.91ZM90.55 12.81L90.55 12.81L90.55 12.81Q91.56 12.81 92.12 12.10L92.12 12.10L92.12 12.10Q92.68 11.40 92.68 10.16L92.68 10.16L92.68 10.16Q92.68 8.92 92.13 8.22L92.13 8.22L92.13 8.22Q91.59 7.52 90.55 7.52L90.55 7.52L90.55 7.52Q89.52 7.52 88.97 8.21L88.97 8.21L88.97 8.21Q88.42 8.90 88.42 10.18L88.42 10.18L88.42 10.18Q88.42 11.41 88.98 12.11L88.98 12.11L88.98 12.11Q89.53 12.81 90.55 12.81ZM101.61 12.91L101.61 12.91L101.61 12.91Q100.70 13.92 99.18 13.92L99.18 13.92L99.18 13.92Q97.65 13.92 96.74 12.92L96.74 12.92L96.74 12.92Q95.83 11.93 95.83 10.18L95.83 10.18L95.83 10.18Q95.83 8.44 96.74 7.43L96.74 7.43L96.74 7.43Q97.65 6.43 99.18 6.43L99.18 6.43L99.18 6.43Q100.72 6.43 101.62 7.42L101.62 7.42L101.62 7.42Q102.52 8.41 102.52 10.16L102.52 10.16L102.52 10.16Q102.52 11.90 101.61 12.91ZM99.18 12.81L99.18 12.81L99.18 12.81Q100.18 12.81 100.74 12.10L100.74 12.10L100.74 12.10Q101.30 11.40 101.30 10.16L101.30 10.16L101.30 10.16Q101.30 8.92 100.76 8.22L100.76 8.22L100.76 8.22Q100.21 7.52 99.18 7.52L99.18 7.52L99.18 7.52Q98.14 7.52 97.59 8.21L97.59 8.21L97.59 8.21Q97.05 8.90 97.05 10.18L97.05 10.18L97.05 10.18Q97.05 11.41 97.60 12.11L97.60 12.11L97.60 12.11Q98.15 12.81 99.18 12.81ZM110.91 13.75L109.61 13.75L107.39 9.39L106.12 10.70L106.12 13.75L104.93 13.75L104.93 4.21L106.12 3.64L106.12 9.34L108.72 6.59L110.12 6.59L108.23 8.53L110.91 13.75ZM116.59 5.28L116.59 5.28L116.59 5.28Q116.28 5.28 116.07 5.06L116.07 5.06L116.07 5.06Q115.85 4.84 115.85 4.54L115.85 4.54L115.85 4.54Q115.85 4.21 116.07 3.99L116.07 3.99L116.07 3.99Q116.28 3.77 116.59 3.77L116.59 3.77L116.59 3.77Q116.91 3.77 117.13 3.99L117.13 3.99L117.13 3.99Q117.35 4.21 117.35 4.54L117.35 4.54L117.35 4.54Q117.35 4.86 117.13 5.07L117.13 5.07L117.13 5.07Q116.91 5.28 116.59 5.28ZM117.19 6.59L117.19 12.68L119.17 12.68L119.17 13.75L114.03 13.75L114.03 12.68L116.00 12.68L116.00 7.66L114.03 7.66L114.03 6.59L117.19 6.59ZM125.31 6.43L125.31 6.43L125.31 6.43Q126.62 6.43 127.29 7.20L127.29 7.20L127.29 7.20Q127.96 7.97 127.96 9.65L127.96 9.65L127.96 13.75L126.77 13.75L126.77 9.49L126.77 9.49Q126.77 8.47 126.31 7.99L126.31 7.99L126.31 7.99Q125.86 7.52 125.10 7.52L125.10 7.52L125.10 7.52Q123.34 7.52 123.34 9.46L123.34 9.46L123.34 13.75L122.15 13.75L122.15 6.59L123.27 6.59L123.27 7.45L123.27 7.45Q123.91 6.43 125.31 6.43ZM133.15 16.69L133.15 16.69L132.57 15.74L132.57 15.74Q134.13 15.64 134.73 15.18L134.73 15.18L134.73 15.18Q135.32 14.73 135.32 13.92L135.32 13.92L135.32 13.05L135.32 13.05Q134.69 13.92 133.39 13.92L133.39 13.92L133.39 13.92Q132.10 13.92 131.25 12.94L131.25 12.94L131.25 12.94Q130.40 11.96 130.40 10.16L130.40 10.16L130.40 10.16Q130.40 8.44 131.24 7.43L131.24 7.43L131.24 7.43Q132.08 6.43 133.45 6.43L133.45 6.43L133.45 6.43Q134.65 6.43 135.32 7.20L135.32 7.20L135.32 6.59L136.51 6.59L136.51 13.43L136.51 13.43Q136.51 15.11 135.64 15.85L135.64 15.85L135.64 15.85Q134.76 16.59 133.15 16.69ZM133.64 12.81L133.64 12.81L133.64 12.81Q134.15 12.81 134.60 12.54L134.60 12.54L134.60 12.54Q135.06 12.26 135.32 11.77L135.32 11.77L135.32 8.48L135.32 8.48Q135.06 8.04 134.59 7.78L134.59 7.78L134.59 7.78Q134.12 7.52 133.64 7.52L133.64 7.52L133.64 7.52Q132.65 7.52 132.13 8.20L132.13 8.20L132.13 8.20Q131.61 8.88 131.61 10.16L131.61 10.16L131.61 10.16Q131.61 11.40 132.17 12.10L132.17 12.10L132.17 12.10Q132.73 12.81 133.64 12.81Z"></path></g><!----><g data-v-423bf9ae="" id="cab88fb1-48d1-4001-af34-7e18c442fd7e" transform="matrix(1.5,0,0,1.5,237.61998748779297,-28.999374389648438)" stroke="none" fill="black"><path d="M71.841 38.928a5.805 5.805 0 0 0-6.217-5.347 5.808 5.808 0 0 0-5.348 6.218 5.803 5.803 0 0 0 4.693 5.262l1.335 17.752a1.564 1.564 0 0 0 1.669 1.424 1.537 1.537 0 0 0 1.064-.541c.271-.316.401-.717.367-1.127l-1.341-17.768a5.817 5.817 0 0 0 3.778-5.873zm-5.99-2.319a2.748 2.748 0 0 1 2.944 2.53 2.747 2.747 0 0 1-2.531 2.942 2.746 2.746 0 0 1-2.943-2.53 2.746 2.746 0 0 1 2.53-2.942zM82.085 45.15a1.548 1.548 0 0 0-1.165.269c-.339.242-.562.6-.628 1.005l-.422 2.49c-.16.941-.709 1.661-1.49 2l.795-4.687a1.561 1.561 0 0 0-1.274-1.787 1.551 1.551 0 0 0-1.792 1.274l-.793 4.681c-.627-.578-.909-1.438-.748-2.379l.425-2.5a1.563 1.563 0 0 0-1.276-1.784 1.542 1.542 0 0 0-1.164.268 1.534 1.534 0 0 0-.628 1.006l-.425 2.509a5.801 5.801 0 0 0 3.288 6.237l-2.979 17.551a1.564 1.564 0 0 0 1.276 1.784c.411.069.824-.026 1.164-.269.339-.242.562-.6.628-1.005l2.977-17.569c2.544-.28 4.648-2.245 5.082-4.811l.424-2.496a1.563 1.563 0 0 0-1.275-1.787z"></path><path d="M63.314 63.039l-.265-3.517a19.007 19.007 0 0 1-2.99 3.92c-7.423 7.423-19.458 7.423-26.88 0-7.424-7.425-7.424-19.459 0-26.881 6.887-6.888 17.74-7.373 25.2-1.478a8.896 8.896 0 0 1 1.485-1.953c-8.423-6.628-20.655-6.073-28.421 1.694-8.382 8.381-8.382 21.969 0 30.352 8.38 8.381 21.97 8.381 30.352 0a21.825 21.825 0 0 0 1.584-1.78c-.02-.12-.054-.234-.065-.357z"></path><g><path d="M69.512 66.91a4.51 4.51 0 0 1-1.312.319 4.914 4.914 0 0 1-.343.013c-1.257 0-2.402-.537-3.235-1.391-.336.38-.659.768-1.022 1.131-9.379 9.378-24.585 9.378-33.963 0-9.379-9.38-9.379-24.584 0-33.963 8.861-8.861 22.919-9.338 32.354-1.453a8.76 8.76 0 0 1 4.073-1.002c1.575 0 3.06.432 4.35 1.174a30.39 30.39 0 0 0-2.581-2.953c-11.716-11.715-30.712-11.715-42.427 0-11.716 11.716-11.716 30.711 0 42.428 11.715 11.715 30.711 11.714 42.427-.001.4-.4.784-.811 1.157-1.227l.522-3.075z"></path></g></g><!----></svg>