<svg data-v-fde0c5aa="" xmlns="http://www.w3.org/2000/svg" viewBox="0 0 300 300" class="icon"><!----><defs data-v-fde0c5aa=""><!----></defs><rect data-v-fde0c5aa="" fill="#FFFFFF" x="0" y="0" width="300px" height="300px" class="logo-background-square"></rect><!----><defs data-v-fde0c5aa=""><linearGradient data-v-fde0c5aa="" gradientTransform="rotate(25)" id="aadedc4d-89c9-4642-abe4-bf6ed9e0e72d" x1="0%" y1="0%" x2="100%" y2="0%"><stop data-v-fde0c5aa="" offset="0%" stop-color="#FCA500" stop-opacity="1"></stop><stop data-v-fde0c5aa="" offset="100%" stop-color="#FFDB00" stop-opacity="1"></stop></linearGradient></defs><g data-v-fde0c5aa="" id="fd2a1679-7aeb-45b1-869f-af0a4f30a46c" fill="url(#aadedc4d-89c9-4642-abe4-bf6ed9e0e72d)" stroke="none" transform="matrix(3.295352836469322,0,0,3.295352836469322,-14.765479650431928,-14.763518609773016)"><path d="M71.841 38.928a5.805 5.805 0 0 0-6.217-5.347 5.808 5.808 0 0 0-5.348 6.218 5.803 5.803 0 0 0 4.693 5.262l1.335 17.752a1.564 1.564 0 0 0 1.669 1.424 1.537 1.537 0 0 0 1.064-.541c.271-.316.401-.717.367-1.127l-1.341-17.768a5.817 5.817 0 0 0 3.778-5.873zm-5.99-2.319a2.748 2.748 0 0 1 2.944 2.53 2.747 2.747 0 0 1-2.531 2.942 2.746 2.746 0 0 1-2.943-2.53 2.746 2.746 0 0 1 2.53-2.942zM82.085 45.15a1.548 1.548 0 0 0-1.165.269c-.339.242-.562.6-.628 1.005l-.422 2.49c-.16.941-.709 1.661-1.49 2l.795-4.687a1.561 1.561 0 0 0-1.274-1.787 1.551 1.551 0 0 0-1.792 1.274l-.793 4.681c-.627-.578-.909-1.438-.748-2.379l.425-2.5a1.563 1.563 0 0 0-1.276-1.784 1.542 1.542 0 0 0-1.164.268 1.534 1.534 0 0 0-.628 1.006l-.425 2.509a5.801 5.801 0 0 0 3.288 6.237l-2.979 17.551a1.564 1.564 0 0 0 1.276 1.784c.411.069.824-.026 1.164-.269.339-.242.562-.6.628-1.005l2.977-17.569c2.544-.28 4.648-2.245 5.082-4.811l.424-2.496a1.563 1.563 0 0 0-1.275-1.787z"></path><path d="M63.314 63.039l-.265-3.517a19.007 19.007 0 0 1-2.99 3.92c-7.423 7.423-19.458 7.423-26.88 0-7.424-7.425-7.424-19.459 0-26.881 6.887-6.888 17.74-7.373 25.2-1.478a8.896 8.896 0 0 1 1.485-1.953c-8.423-6.628-20.655-6.073-28.421 1.694-8.382 8.381-8.382 21.969 0 30.352 8.38 8.381 21.97 8.381 30.352 0a21.825 21.825 0 0 0 1.584-1.78c-.02-.12-.054-.234-.065-.357z"></path><g><path d="M69.512 66.91a4.51 4.51 0 0 1-1.312.319 4.914 4.914 0 0 1-.343.013c-1.257 0-2.402-.537-3.235-1.391-.336.38-.659.768-1.022 1.131-9.379 9.378-24.585 9.378-33.963 0-9.379-9.38-9.379-24.584 0-33.963 8.861-8.861 22.919-9.338 32.354-1.453a8.76 8.76 0 0 1 4.073-1.002c1.575 0 3.06.432 4.35 1.174a30.39 30.39 0 0 0-2.581-2.953c-11.716-11.715-30.712-11.715-42.427 0-11.716 11.716-11.716 30.711 0 42.428 11.715 11.715 30.711 11.714 42.427-.001.4-.4.784-.811 1.157-1.227l.522-3.075z"></path></g></g><!----></svg>